<svg width="28" height="29" viewBox="0 0 28 29" fill="none" xmlns="http://www.w3.org/2000/svg">
<path fill-rule="evenodd" clip-rule="evenodd" d="M3.75391 1.87703L3.75391 26.2791C3.75391 27.3157 2.7173 28.1561 1.87688 28.1561C0.840271 28.1561 -0.000148298 27.3157 -0.000148253 26.2791L-0.000147186 1.87703C-0.000147141 0.840418 1.03646 -1.18783e-07 1.87688 -8.20474e-08C2.91349 -3.67358e-08 3.75391 0.840418 3.75391 1.87703Z" fill="white"/>
<path fill-rule="evenodd" clip-rule="evenodd" d="M16.3661 8.88789C17.1454 8.1064 17.1448 6.84137 16.3663 6.06069C15.5873 5.2798 14.3252 5.28 13.5465 6.06069L6.48982 13.135C5.97013 13.6558 5.97053 14.5008 6.48982 15.0215L13.5465 22.0958C14.3258 22.877 15.5876 22.8764 16.3663 22.0958C17.145 21.3149 17.1448 20.0494 16.3661 19.2685L13.1637 16.0589L26.0071 16.0589C27.1069 16.0589 28 15.1639 28 14.0597C28 12.9555 27.1077 12.0607 26.0071 12.0607L13.2004 12.0607L16.3661 8.88789Z" fill="white"/>
</svg>
