<svg width="51" height="51" viewBox="0 0 51 51" fill="none" xmlns="http://www.w3.org/2000/svg">
<path d="M33.7661 10.3592H29.6822C28.6582 10.3013 27.6336 10.4637 26.6777 10.8355C25.7219 11.2073 24.8568 11.7798 24.141 12.5143C23.4252 13.2489 22.8753 14.1284 22.5283 15.0936C22.1814 16.0588 22.0455 17.0872 22.1299 18.1094V21.6894H18.024C17.8535 21.6894 17.6901 21.7571 17.5696 21.8776C17.4491 21.9981 17.3813 22.1615 17.3813 22.332V27.51C17.3813 27.6805 17.4491 27.8439 17.5696 27.9644C17.6901 28.0849 17.8535 28.1526 18.024 28.1526H22.1299V41.2178C22.1299 41.3883 22.1976 41.5517 22.3181 41.6722C22.4386 41.7927 22.602 41.8604 22.7725 41.8604H28.1298C28.3002 41.8604 28.4637 41.7927 28.5842 41.6722C28.7047 41.5517 28.7724 41.3883 28.7724 41.2178V28.1459H33.5733C33.6577 28.1459 33.7413 28.1292 33.8192 28.0969C33.8972 28.0647 33.968 28.0173 34.0277 27.9576C34.0874 27.898 34.1347 27.8271 34.167 27.7492C34.1993 27.6712 34.2159 27.5876 34.2159 27.5033V22.3252C34.2159 22.1548 34.1482 21.9913 34.0277 21.8708C33.9072 21.7503 33.7438 21.6826 33.5733 21.6826H28.7707V18.6454C28.7707 17.1894 29.1174 16.4471 31.0147 16.4471H33.7661C33.9365 16.4471 34.1 16.3794 34.2205 16.2588C34.341 16.1383 34.4087 15.9749 34.4087 15.8045V11.0086C34.4096 10.9236 34.3936 10.8393 34.3618 10.7606C34.3299 10.6818 34.2827 10.6102 34.2229 10.5498C34.1631 10.4894 34.092 10.4415 34.0136 10.4088C33.9352 10.376 33.8511 10.3592 33.7661 10.3592Z" fill="#FCFDFE"/>
<rect x="1" y="1" width="49" height="49" rx="9" fill="white" fill-opacity="0.47" stroke="white" stroke-width="2"/>
</svg>
