<svg width="51" height="51" viewBox="0 0 51 51" fill="none" xmlns="http://www.w3.org/2000/svg">
<rect x="1" y="1" width="49" height="49" rx="9" fill="white" fill-opacity="0.47" stroke="white" stroke-width="2"/>
<path d="M41.2379 19.4527C41.2128 18.1687 40.9694 16.8984 40.518 15.6962C40.1188 14.6667 39.5091 13.7319 38.7279 12.9515C37.9466 12.1712 37.0111 11.5625 35.9812 11.1645C34.7788 10.7137 33.5086 10.4703 32.2247 10.4447C30.567 10.3668 30.041 10.3478 25.8381 10.3478C21.6352 10.3478 21.1057 10.3668 19.4533 10.4378C18.1693 10.4628 16.899 10.7063 15.6968 11.1576C14.6619 11.5449 13.7245 12.1544 12.9508 12.9432C12.1642 13.7186 11.5555 14.6555 11.1668 15.6892C10.7131 16.8911 10.4667 18.1614 10.4383 19.4457C10.3674 21.1034 10.3501 21.6294 10.3501 25.834C10.3501 30.0387 10.3674 30.5647 10.4383 32.2172C10.4639 33.5012 10.7079 34.7715 11.1599 35.9737C11.5584 37.0027 12.1673 37.9373 12.9477 38.7176C13.728 39.4979 14.6625 40.1068 15.6916 40.5053C16.894 40.9561 18.1642 41.1995 19.4481 41.2251C21.0988 41.2978 21.6265 41.3151 25.8294 41.3151C30.0324 41.3151 30.5601 41.2978 32.2108 41.2251C33.4948 41.2002 34.7651 40.9568 35.9673 40.5053C36.9967 40.1073 37.9315 39.4986 38.7119 38.7183C39.4923 37.9379 40.101 37.003 40.499 35.9737C40.9497 34.7712 41.1931 33.501 41.2188 32.2172C41.2915 30.5664 41.3088 30.0387 41.3088 25.8358C41.3088 21.6329 41.3088 21.1051 41.2309 19.4544L41.2379 19.4527ZM38.4486 32.096C38.4385 33.0777 38.2582 34.0501 37.9157 34.9701C37.6576 35.6384 37.2625 36.2453 36.756 36.7519C36.2494 37.2585 35.6424 37.6535 34.9741 37.9116C34.054 38.2535 33.0817 38.4338 32.1001 38.4445C30.4667 38.5172 29.977 38.5345 25.845 38.5345C21.713 38.5345 21.2164 38.5172 19.5899 38.4445C18.6083 38.4346 17.6358 38.2543 16.7159 37.9116C16.0435 37.6644 15.4355 37.2687 14.9371 36.754C14.4244 36.2544 14.0295 35.6468 13.7813 34.9753C13.4394 34.0551 13.2591 33.0828 13.2484 32.1012C13.1757 30.4678 13.1584 29.9781 13.1584 25.8462C13.1584 21.7142 13.1757 21.2176 13.2484 19.5911C13.2583 18.6094 13.4386 17.637 13.7813 16.717C14.0264 16.0445 14.4217 15.4368 14.9371 14.94C15.4376 14.4267 16.0465 14.0317 16.7194 13.7842C17.6395 13.4424 18.6119 13.2621 19.5934 13.2512C21.2268 13.1786 21.7165 13.1613 25.8485 13.1613C29.9805 13.1613 30.4771 13.1803 32.1035 13.2512C33.0852 13.2613 34.0576 13.4416 34.9776 13.7842C35.6499 14.0308 36.2579 14.4259 36.7563 14.94C37.2691 15.4396 37.664 16.0473 37.9122 16.7188C38.254 17.6389 38.4343 18.6113 38.4451 19.5928C38.5178 21.2262 38.5351 21.7159 38.5351 25.8479C38.5351 29.9799 38.5161 30.4644 38.4451 32.0978L38.4486 32.096Z" fill="#FCFDFE"/>
<path d="M25.8364 17.8798C24.2622 17.8798 22.7233 18.3466 21.4144 19.2212C20.1054 20.0958 19.0853 21.3388 18.4828 22.7932C17.8804 24.2476 17.7228 25.848 18.0299 27.392C18.337 28.936 19.0951 30.3542 20.2082 31.4673C21.3214 32.5805 22.7396 33.3386 24.2836 33.6457C25.8275 33.9528 27.4279 33.7951 28.8823 33.1927C30.3367 32.5903 31.5798 31.5701 32.4544 30.2612C33.329 28.9523 33.7958 27.4134 33.7958 25.8392C33.7958 23.7282 32.9572 21.7037 31.4646 20.211C29.9719 18.7183 27.9473 17.8798 25.8364 17.8798ZM25.8364 30.9955C24.8159 30.9955 23.8183 30.6929 22.9698 30.1259C22.1212 29.559 21.4599 28.7531 21.0694 27.8103C20.6788 26.8675 20.5767 25.83 20.7757 24.8291C20.9748 23.8282 21.4663 22.9088 22.1879 22.1872C22.9095 21.4656 23.8289 20.9742 24.8298 20.7751C25.8307 20.576 26.8681 20.6782 27.8109 21.0687C28.7538 21.4592 29.5596 22.1206 30.1266 22.9691C30.6936 23.8176 30.9962 24.8152 30.9962 25.8357C30.9957 27.2041 30.4519 28.5162 29.4844 29.4837C28.5169 30.4513 27.2047 30.9951 25.8364 30.9955Z" fill="#FCFDFE"/>
<path d="M35.9691 17.5649C35.9691 17.9321 35.8602 18.291 35.6562 18.5964C35.4522 18.9017 35.1623 19.1396 34.823 19.2802C34.4837 19.4207 34.1104 19.4575 33.7503 19.3858C33.3901 19.3142 33.0593 19.1374 32.7997 18.8777C32.54 18.6181 32.3632 18.2872 32.2915 17.9271C32.2199 17.5669 32.2567 17.1936 32.3972 16.8544C32.5377 16.5151 32.7757 16.2252 33.081 16.0212C33.3863 15.8172 33.7453 15.7083 34.1125 15.7083C34.6049 15.7083 35.0772 15.9039 35.4253 16.252C35.7735 16.6002 35.9691 17.0725 35.9691 17.5649Z" fill="#FCFDFE"/>
</svg>
