<svg width="51" height="51" viewBox="0 0 51 51" fill="none" xmlns="http://www.w3.org/2000/svg">
<rect x="1" y="1" width="49" height="49" rx="9" fill="white" fill-opacity="0.47" stroke="white" stroke-width="2"/>
<path d="M41.6844 16.2876C40.5234 16.7954 39.2928 17.1259 38.0336 17.2681C39.3643 16.4926 40.3561 15.2466 40.8134 13.7758C39.5708 14.5162 38.2088 15.0344 36.7883 15.3071C36.2057 14.6874 35.5047 14.1909 34.7267 13.847C33.9487 13.5031 33.1097 13.3189 32.2592 13.3051C31.4087 13.2914 30.5642 13.4485 29.7755 13.7671C28.9869 14.0857 28.2702 14.5594 27.6679 15.16C27.0687 15.7414 26.595 16.4394 26.276 17.2109C25.957 17.9824 25.7995 18.8111 25.8131 19.6459C25.817 20.1345 25.8717 20.6214 25.9765 21.0987C23.4324 20.9782 20.9445 20.3093 18.6831 19.1376C16.451 17.9991 14.4816 16.4066 12.9013 14.4622C12.3527 15.404 12.0555 16.4711 12.0384 17.5609C12.0212 18.6507 12.2846 19.7266 12.8032 20.6852C13.2961 21.5946 14.0042 22.3694 14.8656 22.942C13.8594 22.9067 12.8764 22.6304 11.9992 22.1364V22.2148C11.979 23.6896 12.4913 25.1222 13.4422 26.2496C14.3627 27.3834 15.6518 28.1583 17.0848 28.4395C16.5402 28.5826 15.9794 28.6551 15.4163 28.6552C15.0151 28.6523 14.6147 28.6195 14.2184 28.5571C14.6259 29.8162 15.4161 30.9166 16.479 31.705C17.5418 32.4933 18.8242 32.9302 20.1473 32.9548C17.9128 34.737 15.1319 35.694 12.2737 35.6643C11.7628 35.6676 11.2521 35.642 10.7441 35.5875C13.6407 37.4711 17.0273 38.4611 20.4823 38.4342C22.6421 38.4497 24.788 38.0875 26.823 37.3638C28.6716 36.7237 30.3883 35.7525 31.889 34.4974C33.2875 33.3011 34.5066 31.9098 35.5088 30.3662C36.4994 28.8599 37.2636 27.2163 37.777 25.4881C38.2687 23.8358 38.5207 22.1215 38.5255 20.3976C38.5255 20.0315 38.519 19.7592 38.5059 19.5805C39.748 18.6751 40.8234 17.5609 41.6844 16.2876Z" fill="#FCFDFE"/>
</svg>
